<?xml version="1.0" encoding="utf-8"?>
<!-- Generator: Adobe Illustrator 18.0.0, SVG Export Plug-In . SVG Version: 6.00 Build 0)  -->
<!DOCTYPE svg PUBLIC "-//W3C//DTD SVG 1.1//EN" "http://www.w3.org/Graphics/SVG/1.1/DTD/svg11.dtd">
<svg version="1.1" id="packlane" xmlns="http://www.w3.org/2000/svg" xmlns:xlink="http://www.w3.org/1999/xlink" x="0px" y="0px"
	 width="209px" height="48.9px" viewBox="0 0 209 48.9" enable-background="new 0 0 209 48.9" xml:space="preserve">
<path fill-rule="evenodd" clip-rule="evenodd" fill="#2E469E" d="M33.4,19.8c-4.7,2.7-12.4,2.7-17.1,0c-4.7-2.7-4.7-7.2-0.1-9.9
	c4.7-2.7,12.4-2.7,17.1,0C38.1,12.6,38.1,17.1,33.4,19.8z M32.8,10.3c-4.4-2.5-11.5-2.5-15.9,0c-4.4,2.5-4.3,6.7,0.1,9.2
	c4.4,2.5,11.5,2.5,15.9,0C37.2,16.9,37.2,12.8,32.8,10.3z M31.1,16.6c-2.1,1.2-4.6,0.9-7.1-0.5l-1-0.6l-2.5,1.5l1.2,0.7l-1.2,0.7
	l-4.4-2.5l1.2-0.7l0.5,0.3c0.2,0.1,0.7,0.1,0.8,0l6.6-3.8c0.2-0.1,0.2-0.4,0-0.5l-0.5-0.3l1.2-0.7l4.2,2.4
	C32.6,13.9,33.2,15.3,31.1,16.6z M28.8,13.2l-1-0.6l-3.6,2.1l1,0.6c1.4,0.8,2.5,0.6,3.6,0C29.8,14.7,30.3,14.1,28.8,13.2z
	 M48.7,14.7v19.6c0,1.7-0.7,3.1-2,3.8l-16.1,9.3c-1.8,1-3.8,1.5-5.8,1.5c-2,0-4.1-0.5-5.8-1.5L2.5,38.1C1,37.3,0,35.8,0,34.3V14.7
	c0-1.5,1.1-3,2.5-3.8L19,1.5c1.8-1,3.8-1.5,5.8-1.5c2,0,4.1,0.5,5.8,1.6l16.1,9.3C48,11.6,48.7,13,48.7,14.7z M46.9,21.6
	c-0.3,0.3-0.7,0.6-1.1,0.8L30,31.6c-1.3,0.8-3.1,1.3-5.1,1.3h0l-0.2,0l-0.2,0c-2,0-3.8-0.4-5.1-1.3L3.5,22.5
	c-0.4-0.2-0.8-0.5-1.1-0.8l0,12.4c0,0.8,0.6,1.6,1.7,2.3l15.8,9.2c1.1,0.7,2.7,1.1,4.5,1.1l0.3,0l0.3,0c1.7,0,3.4-0.4,4.5-1.1
	l15.8-9.2c1.1-0.6,1.7-1.5,1.7-2.3L46.9,21.6z M45.1,12.8L29.3,3.7c-1.3-0.7-3-1.1-4.8-1.1c-1.8,0-3.5,0.4-4.7,1.1L4.1,13
	c-1.1,0.6-1.7,1.5-1.7,2.5h0l0,0.7c0.3,0.5,0.8,0.9,1.5,1.3l15.8,9.1c1.4,0.8,3.2,1.3,5,1.3c1.8,0,3.6-0.4,5-1.3l15.8-9.1
	c0.6-0.4,1.1-0.8,1.5-1.3c0,0,0-0.4,0-1S46.3,13.5,45.1,12.8z M46.9,20.1l0-2.7c-0.3,0.3-0.7,0.6-1.2,0.9l-15.7,9.1
	c-1.4,0.8-3.3,1.3-5.3,1.3c-2,0-3.9-0.5-5.4-1.3L3.6,18.3c-0.5-0.3-0.8-0.6-1.2-0.9l0,2.7c0.3,0.6,0.9,1,1.5,1.4l15.8,9.2
	c1.4,0.8,3.2,1.3,5,1.3c1.8,0,3.6-0.4,5-1.3l15.8-9.2C46.1,21.2,46.6,20.7,46.9,20.1z M61.4,18v3.6c0.5,0.1,1,0.3,1.5,0.3v8.5
	c-0.5,0.1-1,0.2-1.5,0.3v3.5h8.1v-3.5c-0.5-0.1-1-0.3-1.5-0.3v-1.2h2.3c4.2,0,5.8-1.3,5.8-4.8v-1.2c0-3.8-1.6-5.2-5.9-5.2H61.4z
	 M71.5,24.1c0,1-0.6,1.5-1.7,1.5H68v-3.6h1.9c1.1,0,1.7,0.4,1.7,1.4V24.1z M90.1,18h-9.4v3.6c0.5,0.1,0.9,0.2,1.3,0.3l-2.6,8.5
	c-0.6,0.1-1.3,0.2-1.8,0.4v3.5h7.6v-3.5c-0.5-0.1-0.7-0.1-1.2-0.2l0.3-0.9h3.9l0.2,0.9c-0.5,0.1-1,0.1-1.5,0.2v3.5h9.1v-3.5
	c-0.5-0.1-1.2-0.3-1.9-0.3L90.1,18z M86.2,22.1l1.1,3.6h-2.2L86.2,22.1L86.2,22.1z M112.6,29.2h-4.3c-0.4,1-1,1.5-2,1.5h-0.9
	c-1.1,0-2-1-2-2.1v-4.9c0-1.3,0.7-2,1.9-2c1,0,1.7,0.1,2.4,0.2l0.6,2.2h4.3v-5.7c-3-0.5-4.5-0.9-6.3-0.9H105c-4.2,0-6.6,2.4-6.6,6.8
	v3.8c0.5,4.5,2.1,6.7,6.5,6.7h1.7c1.8,0,4-0.7,6-1.7V29.2z M124.3,18h-8.6v3.6c0.5,0.1,1,0.2,2,0.3v8.5c-0.5,0.1-1,0.2-1.5,0.3v3.5
	h8.1v-3.5c-0.5-0.1-1-0.2-2-0.3v-2.3h2.3l1.5,2.4c-0.2,0-0.2,0.1-0.8,0.2v3.5h8.1v-3.5c-0.5-0.1-1.1-0.2-1.6-0.3l-2.9-4.3l2.9-4.3
	c0.4,0,0.6-0.1,1.1-0.2V18h-7.6v3.6c0.5,0.1,0.8,0.1,1.1,0.1l-1.7,2.4h-2.5v-2.2c1-0.1,1.5-0.2,2-0.3V18z M150.2,34.3v-6.1h-3.2
	l-0.6,2h-3.3V22c0.5-0.1,1.5-0.2,2-0.4V18h-8.6v3.6c0.5,0.1,1,0.2,1.5,0.3v8.5c-0.5,0.1-1,0.2-1.5,0.3v3.5H150.2z M165.5,18h-9.3
	v3.6c0.5,0.1,0.9,0.2,1.3,0.3l-2.6,8.5c-0.6,0.1-1.3,0.2-1.8,0.4v3.5h7.6v-3.5c-0.5-0.1-0.8-0.1-1.3-0.2l0.2-0.9h3.9l0.2,0.9
	c-0.5,0.1-1,0.1-1.5,0.2v3.5h9.1v-3.5c-0.5-0.1-1.2-0.3-1.9-0.3L165.5,18z M161.7,22.1l1.1,3.6h-2.2L161.7,22.1L161.7,22.1z
	 M191.8,18h-7.1v3.6c0.5,0.1,1,0.2,1,0.3v4.6l-5.3-8.4H174v3.6c0.5,0.2,1,0.3,1.5,0.4v8.5c-0.5,0.1-1,0.2-1.5,0.3v3.5h7.1v-3.5
	c0-0.1-0.5-0.2-1-0.2v-4.1l5.1,7.8h5.1V22c0.5-0.1,1-0.2,1.5-0.3V18z M209,18h-14.2v3.6c0.5,0.1,1,0.2,1.5,0.3v8.5
	c0,0.1-0.5,0.2-1,0.3v3.5H209v-5.6h-3.2l-0.6,1.5h-3.8v-2h3.6v-4.1h-3.6v-2h3.8l0.6,1.5h3.2V18z"/>
</svg>
