<?xml version="1.0" encoding="utf-8"?>
<!DOCTYPE svg PUBLIC "-//W3C//DTD SVG 1.1//EN" "http://www.w3.org/Graphics/SVG/1.1/DTD/svg11.dtd">
<svg version="1.1" id="packlane-iso_1_" xmlns="http://www.w3.org/2000/svg" xmlns:xlink="http://www.w3.org/1999/xlink" x="0px"
	 y="0px" width="40px" height="41px" viewBox="0 0 40 41" enable-background="new 0 0 40 41" xml:space="preserve">
<path id="packlane-p" fill="#2E469E" d="M37.2,18.1l-13,7.6c-1.1,0.7-2.6,1-4.1,1c-1.5,0-2.9-0.4-4.1-1.1L3.1,18.1
	c-0.5-0.3-1-0.7-1.2-1.1l0-2.2c0.3,0.3,0.6,0.5,1,0.7l12.9,7.5c1.2,0.7,2.7,1.1,4.4,1.1c1.7,0,3.2-0.4,4.4-1.1l12.9-7.5
	c0.4-0.2,0.7-0.5,1-0.7l0,2.2C38.1,17.4,37.7,17.8,37.2,18.1L37.2,18.1z M38.4,13c0,0.5,0,0.8,0,0.8c-0.3,0.4-0.7,0.7-1.2,1l-13,7.5
	c-1.1,0.7-2.6,1-4.1,1c-1.5,0-2.9-0.4-4.1-1L3.1,14.8c-0.5-0.3-0.9-0.6-1.2-1l0-0.5h0c0-0.8,0.5-1.6,1.4-2.1l12.9-7.7
	c1-0.6,2.4-0.9,3.9-0.9c1.5,0,2.9,0.3,3.9,0.9l13,7.5C37.9,11.5,38.4,12.5,38.4,13L38.4,13z M38.4,28.4c0,0.7-0.5,1.4-1.4,1.9
	l-13,7.5c-0.9,0.6-2.2,0.9-3.7,0.9l-0.2,0l-0.2,0c-1.4,0-2.8-0.3-3.7-0.9l-13-7.5c-0.9-0.5-1.4-1.2-1.4-1.9l0-10.2
	c0.3,0.2,0.6,0.5,0.9,0.7l12.9,7.5c1.1,0.7,2.6,1,4.2,1l0.2,0l0.2,0h0c1.6,0,3.1-0.4,4.2-1l12.9-7.5c0.4-0.2,0.7-0.4,0.9-0.7
	L38.4,28.4z M38.3,9.3L25,1.7c-1.5-0.8-3.1-1.3-4.8-1.3c-1.7,0-3.3,0.4-4.7,1.3L2,9.3c-1.2,0.7-2,1.9-2,3.2v16.1
	c0,1.3,0.8,2.5,2,3.2l13.4,7.6c1.5,0.8,3.1,1.3,4.8,1.3c1.7,0,3.3-0.4,4.8-1.3l13.3-7.6c1.1-0.6,1.7-1.8,1.7-3.2V12.5
	C40,11.1,39.4,9.9,38.3,9.3L38.3,9.3z M23.5,13c-0.9,0.5-1.8,0.7-2.9,0l-0.8-0.5l3-1.7l0.8,0.5C24.7,12,24.4,12.5,23.5,13L23.5,13z
	 M24.7,10.7l-3.5-2l-1,0.6l0.4,0.3c0.2,0.1,0.1,0.3,0,0.4l-5.4,3.1c-0.1,0.1-0.5,0.1-0.7,0l-0.4-0.3l-1,0.6l3.6,2.1l1-0.6l-1-0.6
	l2.1-1.2l0.8,0.5c2,1.2,4.1,1.5,5.8,0.4C27.2,13,26.7,11.9,24.7,10.7L24.7,10.7z M26.8,16.4c-3.6,2.1-9.4,2.1-13,0
	c-3.6-2.1-3.6-5.5,0-7.5c3.6-2.1,9.4-2.1,13,0C30.4,10.9,30.4,14.3,26.8,16.4L26.8,16.4z M27.3,8.5c-3.9-2.2-10.2-2.2-14,0
	c-3.9,2.2-3.8,5.9,0,8.1c3.9,2.2,10.2,2.2,14,0C31.2,14.4,31.2,10.8,27.3,8.5L27.3,8.5z"/>
</svg>